<svg width="34" height="34" viewBox="0 0 34 34" fill="none" xmlns="http://www.w3.org/2000/svg">
<path d="M8.91875 2.36409L12.7995 16.7749V0.931354C13.1072 0.859905 13.4183 0.796981 13.7323 0.742847V16.7764L18.0972 0.567886C18.4117 0.596221 18.7237 0.633295 19.033 0.678863L14.6329 17.0179L23.3791 1.94491C23.664 2.07245 23.9447 2.20777 24.2208 2.35058L15.442 17.4798L27.9748 5.00969C28.2008 5.2223 28.4207 5.44116 28.6344 5.666L16.0997 18.138L31.3068 9.40206C31.4503 9.67681 31.5863 9.95608 31.7144 10.2396L16.5694 18.9399L32.9861 14.563C33.0319 14.8707 33.0691 15.1812 33.0976 15.4942L16.8078 19.8371L32.9215 19.8371C32.8671 20.1496 32.8038 20.4591 32.732 20.7653L16.8053 20.7653L31.2914 24.6274C31.1426 24.9108 30.9858 25.1894 30.8213 25.4629L16.568 21.6629L28.4728 28.5017C28.2474 28.7323 28.0153 28.9564 27.7768 29.1736L16.1027 22.4672L24.9363 31.2567C24.6569 31.4191 24.3723 31.5737 24.0828 31.72L15.4421 23.1226L21.1036 32.8794C20.7936 32.9666 20.4799 33.0451 20.1629 33.1145L14.6335 23.5852L17.2994 33.4849C17.0618 33.4949 16.8229 33.5 16.5828 33.5C16.5008 33.5 16.419 33.4994 16.3373 33.4982L13.7323 23.8247V33.2572C13.4182 33.203 13.1072 33.1401 12.7995 33.0687V23.8262L10.5026 32.3556C10.2096 32.2407 9.9207 32.1177 9.63617 31.9869L11.8982 23.5873L7.65195 30.9052C7.38907 30.7376 7.13125 30.563 6.87878 30.3814L11.0916 23.121L5.19183 28.9913C4.96586 28.7787 4.74589 28.5599 4.53222 28.3351L10.4301 22.4666L3.1354 26.6572C2.95287 26.406 2.77728 26.1495 2.6089 25.8879L9.96701 21.661L1.52099 23.9128C1.38952 23.6297 1.26589 23.3422 1.15035 23.0507L9.72261 20.7653L0.433603 20.7653C0.361777 20.4591 0.298519 20.1496 0.244094 19.8371L9.7201 19.8371L0.00168521 17.2461C0.000481746 17.1642 -0.00012207 17.0822 -0.00012207 17C-0.00012207 16.7617 0.00495418 16.5246 0.0150049 16.2888L9.96566 18.9417L0.38703 13.4392C0.456776 13.1237 0.535596 12.8116 0.623205 12.5031L10.4331 18.1386L1.78883 9.53753C1.93589 9.24947 2.0912 8.96628 2.25445 8.68826L11.0917 17.4813L4.34895 5.86092C4.56728 5.62365 4.7925 5.39275 5.02428 5.16853L11.8987 17.0159L8.07899 2.83174C8.35385 2.66806 8.63387 2.51208 8.91875 2.36409Z" fill="#0796D3"/>
</svg>
